<?xml version="1.0" encoding="UTF-8"?>
<svg height="16px" viewBox="0 0 16 16" width="16px" xmlns="http://www.w3.org/2000/svg">
    <g fill="#222222">
        <path d="m 5 0 c -1.644531 0 -3 1.355469 -3 3 h 2 c 0 -0.570312 0.429688 -1 1 -1 h 8 c 0.570312 0 1 0.429688 1 1 v 10 c 0 0.570312 -0.429688 1 -1 1 h -8 c -0.570312 0 -1 -0.429688 -1 -1 v -2 h -2 v 2 c 0 1.644531 1.355469 3 3 3 h 8 c 1.644531 0 3 -1.355469 3 -3 v -10 c 0 -1.644531 -1.355469 -3 -3 -3 z m 0 0"/>
        <path d="m 10.859375 2.882812 c -0.972656 -0.027343 -1.921875 0.324219 -2.640625 0.984376 l -0.753906 0.675781 l -0.757813 -0.675781 c -1 -0.898438 -2.402343 -1.191407 -3.675781 -0.769532 c -1.277344 0.417969 -2.230469 1.488282 -2.5 2.804688 s 0.183594 2.675781 1.1875 3.566406 l 5.746094 5.117188 l 5.742187 -5.117188 c 1.171875 -1.011719 1.601563 -2.640625 1.082031 -4.097656 c -0.519531 -1.457032 -1.882812 -2.445313 -3.429687 -2.488282 z m 0 0"/>
    </g>
</svg>
