<?xml version="1.0" encoding="UTF-8"?>
<svg height="128px" viewBox="0 0 128 128" width="128px" xmlns="http://www.w3.org/2000/svg" xmlns:xlink="http://www.w3.org/1999/xlink">
    <filter id="a" height="100%" width="100%" x="0%" y="0%">
        <feColorMatrix color-interpolation-filters="sRGB" values="0 0 0 0 1 0 0 0 0 1 0 0 0 0 1 0 0 0 1 0"/>
    </filter>
    <linearGradient id="b" gradientTransform="matrix(0.196428 0 0 0.342105 2.102295 275.740036)" gradientUnits="userSpaceOnUse" x1="88.595886" x2="536.595886" y1="-449.394012" y2="-449.394012">
        <stop offset="0" stop-color="#9a9996"/>
        <stop offset="0.0500001" stop-color="#deddda"/>
        <stop offset="0.099807" stop-color="#c0bfbc"/>
        <stop offset="0.900001" stop-color="#c0bfbc"/>
        <stop offset="0.950001" stop-color="#deddda"/>
        <stop offset="1" stop-color="#9a9996"/>
    </linearGradient>
    <clipPath id="c">
        <rect height="128" width="128"/>
    </clipPath>
    <clipPath id="d">
        <rect height="128" width="128"/>
    </clipPath>
    <mask id="e">
        <g filter="url(#a)">
            <g clip-path="url(#d)" filter="url(#a)">
                <g clip-path="url(#c)">
                    <path d="m 27.503906 18 h 72 c 4.417969 0 8 3.582031 8 8 v 88 c 0 4.417969 -3.582031 8 -8 8 h -72 c -4.417968 0 -8 -3.582031 -8 -8 v -88 c 0 -4.417969 3.582032 -8 8 -8 z m 0 0" fill="url(#b)"/>
                    <path d="m 27.503906 10 h 72 c 4.417969 0 8 3.582031 8 8 v 92 c 0 4.417969 -3.582031 8 -8 8 h -72 c -4.417968 0 -8 -3.582031 -8 -8 v -92 c 0 -4.417969 3.582032 -8 8 -8 z m 0 0" fill="#f6f5f4"/>
                    <path d="m 96.296875 86.949219 c -2.050781 -0.058594 -4.054687 0.722656 -5.570313 2.195312 l -1.589843 1.503907 l -1.597657 -1.503907 c -2.109374 -2.003906 -5.066406 -2.65625 -7.75 -1.714843 c -2.695312 0.929687 -4.707031 3.3125 -5.273437 6.246093 c -0.570313 2.933594 0.386719 5.960938 2.503906 7.945313 l 12.117188 11.394531 l 12.109375 -11.394531 c 2.472656 -2.253906 3.378906 -5.882813 2.285156 -9.128906 c -1.097656 -3.246094 -3.972656 -5.445313 -7.234375 -5.542969 z m 0 0" fill="#e01b24"/>
                    <path d="m 59.933594 40.023438 c -1.636719 0 -3.101563 0.769531 -3.710938 1.933593 l -7.976562 15.398438 c -0.1875 0.363281 -0.28125 0.746093 -0.28125 1.144531 v 21.554688 h 7.976562 v -9.238282 h 15.976563 v 9.238282 h 7.976562 l -0.015625 -21.554688 c -0.015625 -0.398438 -0.109375 -0.78125 -0.296875 -1.144531 l -7.976562 -15.398438 c -0.609375 -1.164062 -2.074219 -1.933593 -3.695313 -1.933593 z m 2.695312 6.15625 h 2.570313 l 6.703125 12.910156 v 5.566406 h -15.960938 v -5.566406 z m 0 0" fill="#e01b24"/>
                    <path d="m 45.980469 13.054688 c -2.050781 -0.0625 -4.054688 0.71875 -5.570313 2.191406 l -1.589844 1.503906 l -1.597656 -1.503906 c -2.109375 -2 -5.066406 -2.652344 -7.753906 -1.714844 c -2.691406 0.929688 -4.703125 3.316406 -5.269531 6.246094 c -0.570313 2.933594 0.386719 5.960937 2.503906 7.945312 l 12.117187 11.398438 l 12.109376 -11.398438 c 2.472656 -2.253906 3.378906 -5.882812 2.28125 -9.128906 c -1.09375 -3.242188 -3.96875 -5.445312 -7.230469 -5.539062 z m 0 0" fill="#e01b24"/>
                </g>
            </g>
        </g>
    </mask>
    <mask id="f">
        <g filter="url(#a)">
            <rect fill-opacity="0.8" height="184.32" width="184.32" x="-28.16" y="-28.16"/>
        </g>
    </mask>
    <linearGradient id="g" gradientTransform="matrix(0 0.37 -0.98462 0 295.38501 -30.360001)" gradientUnits="userSpaceOnUse" x1="300" x2="428" y1="235" y2="235">
        <stop offset="0" stop-color="#f9f06b"/>
        <stop offset="1" stop-color="#f5c211"/>
    </linearGradient>
    <clipPath id="h">
        <rect height="128" width="128"/>
    </clipPath>
    <clipPath id="i">
        <rect height="128" width="128"/>
    </clipPath>
    <path d="m 27.503906 18 h 72 c 4.417969 0 8 3.582031 8 8 v 88 c 0 4.417969 -3.582031 8 -8 8 h -72 c -4.417968 0 -8 -3.582031 -8 -8 v -88 c 0 -4.417969 3.582032 -8 8 -8 z m 0 0" fill="url(#b)"/>
    <path d="m 27.503906 10 h 72 c 4.417969 0 8 3.582031 8 8 v 92 c 0 4.417969 -3.582031 8 -8 8 h -72 c -4.417968 0 -8 -3.582031 -8 -8 v -92 c 0 -4.417969 3.582032 -8 8 -8 z m 0 0" fill="#f6f5f4"/>
    <g fill="#e01b24">
        <path d="m 96.296875 86.949219 c -2.050781 -0.058594 -4.054687 0.722656 -5.570313 2.195312 l -1.589843 1.503907 l -1.597657 -1.503907 c -2.109374 -2.003906 -5.066406 -2.65625 -7.75 -1.714843 c -2.695312 0.929687 -4.707031 3.3125 -5.273437 6.246093 c -0.570313 2.933594 0.386719 5.960938 2.503906 7.945313 l 12.117188 11.394531 l 12.109375 -11.394531 c 2.472656 -2.253906 3.378906 -5.882813 2.285156 -9.128906 c -1.097656 -3.246094 -3.972656 -5.445313 -7.234375 -5.542969 z m 0 0"/>
        <path d="m 59.933594 40.023438 c -1.636719 0 -3.101563 0.769531 -3.710938 1.933593 l -7.976562 15.398438 c -0.1875 0.363281 -0.28125 0.746093 -0.28125 1.144531 v 21.554688 h 7.976562 v -9.238282 h 15.976563 v 9.238282 h 7.976562 l -0.015625 -21.554688 c -0.015625 -0.398438 -0.109375 -0.78125 -0.296875 -1.144531 l -7.976562 -15.398438 c -0.609375 -1.164062 -2.074219 -1.933593 -3.695313 -1.933593 z m 2.695312 6.15625 h 2.570313 l 6.703125 12.910156 v 5.566406 h -15.960938 v -5.566406 z m 0 0"/>
        <path d="m 45.980469 13.054688 c -2.050781 -0.0625 -4.054688 0.71875 -5.570313 2.191406 l -1.589844 1.503906 l -1.597656 -1.503906 c -2.109375 -2 -5.066406 -2.652344 -7.753906 -1.714844 c -2.691406 0.929688 -4.703125 3.316406 -5.269531 6.246094 c -0.570313 2.933594 0.386719 5.960937 2.503906 7.945312 l 12.117187 11.398438 l 12.109376 -11.398438 c 2.472656 -2.253906 3.378906 -5.882812 2.28125 -9.128906 c -1.09375 -3.242188 -3.96875 -5.445312 -7.230469 -5.539062 z m 0 0"/>
    </g>
    <g mask="url(#e)">
        <g clip-path="url(#i)">
            <g mask="url(#f)">
                <g clip-path="url(#h)">
                    <path d="m 128 80.640625 v 47.359375 h -128 v -47.359375 z m 0 0" fill="url(#g)"/>
                    <path d="m 13.308594 80.640625 l 47.355468 47.359375 h 21.214844 l -47.359375 -47.359375 z m 42.421875 0 l 47.363281 47.359375 h 21.214844 l -47.363282 -47.359375 z m 42.429687 0 l 29.839844 29.839844 v -21.210938 l -8.628906 -8.628906 z m -98.160156 7.90625 v 21.214844 l 18.238281 18.238281 h 21.214844 z m 0 0"/>
                </g>
            </g>
        </g>
    </g>
</svg>
